<?xml version="1.0" encoding="utf-8"?>
<?xml-stylesheet type="text/xsl" href="rss1.xsl"?>
<rss version="2.0" xmlns:atom="http://www.w3.org/2005/Atom" xmlns:content="http://purl.org/rss/1.0/modules/content/" xmlns:dc="http://purl.org/dc/elements/1.1/" xmlns:media="http://search.yahoo.com/mrss/">
<channel>
 <title>Getty</title>
 <link>http://www.gettyimg.com/</link>
 <atom:link href="http://www.gettyimg.com/" rel="self" type="application/rss+xml" />

 
                <item>
                <title><![CDATA[【Music Videos】Vengaboys - We Like To Party (1080p 5.1) VJ-RoGeRs Video Edit (Clean)]]></title>
                <link><![CDATA[https://sharemania.us/threads/vengaboys-we-like-to-party-1080p-5-1-vj-rogers-video-edit-clean.250816/]]></link>
                <description><![CDATA[<article>
<blockquote class="messageText SelectQuoteContainer ugc baseHtml">
<img src="https://i.ibb.co/Pcq8j0q/Vengaboys-We-Like-To-Party-1080p-5-1-VJ-Ro-Ge-Rs-Video-Edit-mp4-thumbs-2024-07-23-21-50-52.jpg" class="bbCodeImage LbImage" alt="[​IMG]" data-url="https://i.ibb.co/Pcq8j0q/Vengaboys-We-Like-To-Party-1080p-5-1-VJ-Ro-Ge-Rs-Video-Edit-mp4-thumbs-2024-07-23-21-50-52.jpg" style=""> <br>
<br>
<div class="ToggleTriggerAnchor bbCodeSpoilerContainer">
<button type="button" class="button bbCodeSpoilerButton ToggleTrigger Tooltip JsOnly" data-target="> .SpoilerTarget"><span>Spoiler: <span class="SpoilerTitle">MediaInfo</span></span></button>
<div class="SpoilerTarget bbCodeSpoilerText">Vengaboys - We Like To Party (1080p 5.1) VJ-RoGeRs Video Edit.mp4<br>
Format : MPEG-4<br>
Format profile : Base Media / Version 2<br>
Codec ID : mp42 (mp42/mp41)<br>
File size : 330 MiB<br>
Duration : 3 min 44 s<br>
Overall bit rate mode : Variable<br>
Overall bit rate : 12.3 Mb/s<br>
Frame rate : 30.000 FPS<br>
Encoded date : 2024-07-24 01:12:32 UTC<br>
Tagged date : 2024-07-24 01:45:56 UTC<br>
TIM : 00:00:00:00<br>
TSC : 30<br>
TSZ : 1<br>
<br>
Video<br>
ID : 1<br>
Format : AVC<br>
Format/Info : Advanced Video Codec<br>
Format profile : Main@L4.1<br>
Format settings : CABAC / 4 Ref Frames<br>
Format settings, CABAC : Yes<br>
Format settings, Reference : 4 frames<br>
Codec ID : avc1<br>
Codec ID/Info : Advanced Video Coding<br>
Duration : 3 min 44 s<br>
Bit rate : 12.0 Mb/s<br>
Width : 1 920 pixels<br>
Height : 1 080 pixels<br>
Display aspect ratio : 16:9<br>
Frame rate mode : Constant<br>
Frame rate : 30.000 FPS<br>
Color space : YUV<br>
Chroma subsampling : 4:2:0<br>
Bit depth : 8 bits<br>
Scan type : Progressive<br>
Bits/(Pixel*Frame) : 0.193<br>
Stream size : 321 MiB (97%)<br>
Language : English<br>
Encoded date : 2024-07-24 01:12:41 UTC<br>
Tagged date : 2024-07-24 01:12:41 UTC<br>
Color range : Limited<br>
Color primaries : BT.709<br>
Transfer characteristics : BT.709<br>
Matrix coefficients : BT.709<br>
Codec configuration box : avcC<br>
<br>
Audio<br>
ID : 2<br>
Format : AAC LC<br>
Format/Info : Advanced Audio Codec Low Complexity<br>
Codec ID : mp4a-40-2<br>
Duration : 3 min 44 s<br>
Source duration : 3 min 44 s<br>
Bit rate mode : Variable<br>
Bit rate : 317 kb/s<br>
Maximum bit rate : 396 kb/s<br>
Channel(s) : 6 channels<br>
Channel layout : C L R Ls Rs LFE<br>
Sampling rate : 48.0 kHz<br>
Frame rate : 46.875 FPS (1024 SPF)<br>
Compression mode : Lossy<br>
Stream size : 8.50 MiB (3%)<br>
Source stream size : 8.50 MiB (3%)<br>
Language : English<br>
Encoded date : 2024-07-24 01:12:38 UTC<br>
Tagged date : 2024-07-24 01:12:38 UTC</div>
</div><br>
<div class="bbCodeBlock bbCodeVfcHH HiddenContent">
<div class="attribution type">Hidden Content:</div>
<blockquote>You must reply before you can see the hidden data contained here.</blockquote>
</div>
<div class="messageTextEndMarker">&nbsp;</div>
</blockquote>
</article>]]></description>
                <author><![CDATA[DJ-RoGeRs-BS]]></author>
                </item>

                
                <item>
                <title><![CDATA[【Live Audios (lossy)】MP3 - Karol G - Mañana Será Bonito Forever, Live From Santiago Bernabéu Stadium (Audio)]]></title>
                <link><![CDATA[https://sharemania.us/threads/karol-g-ma%C3%B1ana-ser%C3%A1-bonito-forever-live-from-santiago-bernab%C3%A9u-stadium-audio.250817/]]></link>
                <description><![CDATA[<article>
<blockquote class="messageText SelectQuoteContainer ugc baseHtml">
Karol G<br>
Mañana Será Bonito Forever<br>
Live From Santiago Bernabéu Stadium<br>
23-07-2024<br>
YouTube Stream<br>
<br>
<img src="https://arepavolatil.com/wp-content/uploads/2024/03/KAROL-G-cuarto-concierto-madrid.jpg" class="bbCodeImage LbImage" alt="[​IMG]" data-url="https://arepavolatil.com/wp-content/uploads/2024/03/KAROL-G-cuarto-concierto-madrid.jpg" style=""> <br>
<br>
Audio: 320 kbps MP3<br>
Time: 2Hrs 47Min 20Seg<br>
<br>
Setlist:<br>
<ol>
<li>INTRO (Historia de Carolina, La Sirena)</li>
<li>TQG </li>
<li>BESTIES</li>
<li>MI CAMA</li>
<li>EL BARCO</li>
<li>X SI VOLVEMOS / NOCHE DE SEXO </li>
<li>TUSA</li>
<li>AMARGURA</li>
<li>Interlude (La sirena se convierte en la Bichota)</li>
<li>BICHOTAG</li>
<li>OKI DOKI</li>
<li>UNA NOCHE EN MEDELLÍN REMIX</li>
<li>QLONA</li>
<li>FRIKI</li>
<li>Pineapple</li>
<li>BICHOTA</li>
<li>EL MAKINON</li>
<li>CAROLINA</li>
<li>GATÚBELA</li>
<li>Tá OK (Remix)</li>
<li>Ocean</li>
<li>PERO TÚ</li>
<li>A Ella</li>
<li>Créeme</li>
<li>Interlude (Carolina la Sirena Bichota en Mañana será Bonito)</li>
<li>MIENTRAS ME CURO DEL CORA</li>
<li>CONTIGO</li>
<li>Si Antes Te Hubiera Conocido</li>
<li>OJOS FERRARI</li>
<li>TUS GAFITAS</li>
<li>CAIRO</li>
<li>MI EX TENÍA RAZÓN</li>
<li>GUCCI LOS PAÑOS</li>
<li>200 COPAS</li>
<li>MAMIII</li>
<li>S91</li>
<li>PROVENZA / PROVENZA (REMIX) / MAÑANA SERÁ BONITO (REMIX)</li>
<li>OUTRO (QUE CHIMBA DE VIDA)</li>
</ol>
<div class="bbCodeBlock bbCodeVfcHH HiddenContent">
<div class="attribution type">Hidden Content:</div>
<blockquote>You must reply before you can see the hidden data contained here.</blockquote>
</div>
<div class="messageTextEndMarker">&nbsp;</div>
</blockquote>
</article>]]></description>
                <author><![CDATA[enguevere]]></author>
                </item>

                </channel></rss>